<?xml version="1.0" encoding="utf-8"?>
<!-- Generator: Adobe Illustrator 15.0.2, SVG Export Plug-In . SVG Version: 6.00 Build 0)  -->
<!DOCTYPE svg PUBLIC "-//W3C//DTD SVG 1.1//EN" "http://www.w3.org/Graphics/SVG/1.1/DTD/svg11.dtd">
<svg version="1.1" id="Layer_1" xmlns="http://www.w3.org/2000/svg" xmlns:xlink="http://www.w3.org/1999/xlink" x="0px" y="0px"
	 width="100%" height="100%" viewBox="0 0 435.817 437.46" enable-background="new 0 0 435.817 437.46"
	 xml:space="preserve">
<path fill="#E6312A" d="M217.341,0.039c0,0,128.478-5.783,196.57,123.337c-35.975,0-207.495,0-207.495,0
	s-39.187-1.289-72.592,46.255c-9.634,19.916-19.911,40.473-8.349,80.937C108.773,222.309,36.824,97.04,36.824,97.04
	S87.578,5.176,217.341,0.039z"/>
<path fill="#FEDA00" d="M407.223,327.87c0,0-59.247,114.143-205.118,108.533c17.995-31.147,103.772-179.681,103.772-179.681
	s20.709-33.289-3.744-85.991c-12.431-18.305-25.09-37.486-65.919-47.713c32.836-0.326,177.285,0.021,177.285,0.021
	S467.667,212.93,407.223,327.87z"/>
<path fill="#65B54C" d="M28.373,328.738c0,0-69.223-108.394,8.58-231.908c17.979,31.16,103.71,179.72,103.71,179.72
	s18.469,34.578,76.341,39.756c22.061-1.609,45.007-2.982,74.28-33.223c-16.139,28.594-88.673,153.521-88.673,153.521
	S97.681,438.56,28.373,328.738z"/>
<path fill="#60AC48" d="M202.105,437.46l29.186-121.792c0,0,32.092-2.505,58.983-32.017
	C273.581,313.016,202.105,437.46,202.105,437.46z"/>
<path fill="#FFFFFF" d="M119.59,220.093c0-53.69,43.52-97.215,97.215-97.215c53.69,0,97.214,43.524,97.214,97.215
	c0,53.694-43.523,97.218-97.214,97.218C163.11,317.311,119.59,273.787,119.59,220.093z"/>
<linearGradient id="SVGID_1_" gradientUnits="userSpaceOnUse" x1="216.8032" y1="140.2954" x2="216.8032" y2="296.1936">
	<stop  offset="0" style="stop-color:#96C1E9"/>
	<stop  offset="1" style="stop-color:#146CB5"/>
</linearGradient>
<path fill="url(#SVGID_1_)" d="M135.86,220.093c0-44.702,36.238-80.941,80.945-80.941c44.698,0,80.94,36.239,80.94,80.941
	c0,44.703-36.242,80.945-80.94,80.945C172.098,301.038,135.86,264.795,135.86,220.093z"/>
<path fill="#F1CF00" d="M413.5,123.039l-120.182,35.237c0,0-18.123-26.596-57.104-35.258
	C269.989,122.903,413.5,123.039,413.5,123.039z"/>
<path fill="#DA3027" d="M123.137,246.197c-16.89-29.25-86.31-149.16-86.31-149.16l89.03,88.07c0,0-9.15,18.82-5.68,45.7
	L123.137,246.197z"/>
</svg>
