<?xml version="1.0" encoding="utf-8"?>
<!-- Generator: Adobe Illustrator 14.0.0, SVG Export Plug-In  -->
<!DOCTYPE svg PUBLIC "-//W3C//DTD SVG 1.1//EN" "http://www.w3.org/Graphics/SVG/1.1/DTD/svg11.dtd" [
	<!ENTITY ns_flows "http://ns.adobe.com/Flows/1.0/">
]>
<svg version="1.1"
	 xmlns="http://www.w3.org/2000/svg" xmlns:xlink="http://www.w3.org/1999/xlink" xmlns:a="http://ns.adobe.com/AdobeSVGViewerExtensions/3.0/"
	 x="0px" y="0px" width="100%" height="100%" viewBox="0 2.65 436 437" enable-background="new 0 2.65 436 437"
	 xml:space="preserve">
<defs>
</defs>
<path fill="#E6312A" d="M217.341,2.689c0,0,128.478-5.783,196.57,123.337c-35.975,0-207.495,0-207.495,0
	s-39.187-1.289-72.592,46.255c-9.634,19.916-19.911,40.473-8.349,80.937C108.773,224.959,36.824,99.69,36.824,99.69
	S87.578,7.826,217.341,2.689z"/>
<path fill="#FEDA00" d="M407.223,330.521c0,0-59.247,114.143-205.118,108.533c17.995-31.148,103.772-179.682,103.772-179.682
	s20.709-33.289-3.744-85.991c-12.432-18.305-25.09-37.486-65.92-47.713c32.836-0.326,177.285,0.021,177.285,0.021
	S467.667,215.581,407.223,330.521z"/>
<path fill="#65B54C" d="M28.373,331.388c0,0-69.223-108.395,8.58-231.908c17.979,31.16,103.71,179.72,103.71,179.72
	s18.469,34.578,76.341,39.756c22.061-1.609,45.006-2.982,74.28-33.223c-16.139,28.594-88.673,153.52-88.673,153.52
	S97.681,441.21,28.373,331.388z"/>
<path fill="#60AC48" d="M202.105,440.111l29.187-121.793c0,0,32.092-2.504,58.982-32.017
	C273.581,315.666,202.105,440.111,202.105,440.111z"/>
<path fill="#FFFFFF" d="M119.59,222.744c0-53.69,43.52-97.215,97.215-97.215c53.689,0,97.214,43.524,97.214,97.215
	c0,53.693-43.522,97.217-97.214,97.217C163.11,319.96,119.59,276.437,119.59,222.744z"/>
<linearGradient id="SVGID_1_" gradientUnits="userSpaceOnUse" x1="112.8022" y1="243.8149" x2="112.8022" y2="87.9167" gradientTransform="matrix(1 0 0 -1 104 386.7607)">
	<stop  offset="0" style="stop-color:#96C1E9"/>
	<stop  offset="1" style="stop-color:#146CB5"/>
</linearGradient>
<path fill="url(#SVGID_1_)" d="M135.86,222.744c0-44.702,36.238-80.941,80.945-80.941c44.697,0,80.939,36.239,80.939,80.941
	c0,44.703-36.242,80.945-80.939,80.945C172.098,303.689,135.86,267.445,135.86,222.744z"/>
<path fill="#F1CF00" d="M413.5,125.689l-120.183,35.237c0,0-18.123-26.596-57.104-35.258
	C269.989,125.553,413.5,125.689,413.5,125.689z"/>
<path fill="#DA3027" d="M123.137,248.847c-16.89-29.25-86.31-149.16-86.31-149.16l89.03,88.07c0,0-9.15,18.82-5.68,45.7
	L123.137,248.847z"/>
<path fill="#0019FF" d="M414.467,419.325C289.332,281.242,164.196,143.158,39.059,5.073C27.638-7.531,9.939,11.997,21.362,24.601
	C146.5,162.687,271.635,300.767,396.774,438.851C408.197,451.458,425.894,431.926,414.467,419.325z"/>
<path fill="#0019FF" d="M413.467,23.6C288.332,161.683,163.196,299.767,38.059,437.851c-11.421,12.604-29.12-6.924-17.697-19.527
	C145.5,280.238,270.635,142.158,395.774,4.074C407.197-8.533,424.894,10.999,413.467,23.6z"/>
</svg>
