<?xml version="1.0" encoding="utf-8"?>
<!-- Generator: Adobe Illustrator 14.0.0, SVG Export Plug-In  -->
<!DOCTYPE svg PUBLIC "-//W3C//DTD SVG 1.1//EN" "http://www.w3.org/Graphics/SVG/1.1/DTD/svg11.dtd" [
	<!ENTITY ns_flows "http://ns.adobe.com/Flows/1.0/">
]>
<svg version="1.1"
	 xmlns="http://www.w3.org/2000/svg" xmlns:xlink="http://www.w3.org/1999/xlink" xmlns:a="http://ns.adobe.com/AdobeSVGViewerExtensions/3.0/"
	 x="0px" y="0px" width="100%" height="100%" viewBox="-0.001 0 158 139" enable-background="new -0.001 0 158 139"
	 xml:space="preserve">
<defs>
</defs>
<path fill="#A7A9AC" d="M110.278,135.194c-6.012,2.24-12.722,3.524-20.114,3.826c-7.393,0.299-15.332-0.383-23.757-2.017
	c-9.135-1.741-17.478-4.176-25-7.358c-7.502-3.164-14.601-7.229-21.316-12.177c-6.724-4.944-11.752-9.782-15.018-14.538
	c-3.267-4.757-4.94-9.683-5.056-14.759c-0.191-4.756,1.161-8.93,4.1-12.504c2.944-3.565,7.42-6.468,13.392-8.689
	c5.972-2.228,12.675-3.492,20.095-3.772c7.413-0.28,15.399,0.403,23.905,2.057c9.055,1.715,17.342,4.147,24.81,7.316
	c7.454,3.164,14.594,7.256,21.379,12.264c6.799,4.988,11.861,9.859,15.134,14.58c3.273,4.729,4.946,9.627,5.07,14.67
	c0.19,4.693-1.169,8.849-4.134,12.408C120.808,130.062,116.284,132.953,110.278,135.194L110.278,135.194z M104.286,130.787
	c6.751-2.521,8.65-5.89,6.423-10.216c-2.37-4.631-11.818-13.204-29.193-25.981C64.146,81.812,51.772,74.337,44.188,71.638
	c-7.092-2.521-13.801-2.678-20.551-0.172c-6.8,2.543-8.726,5.938-6.472,10.304c2.398,4.683,11.82,13.242,29.106,25.948
	c17.28,12.71,29.646,20.171,37.298,22.89C90.725,133.151,97.488,133.321,104.286,130.787L104.286,130.787z"/>
<path fill="#ED1C24" d="M97.079,139.136c-8.404,0-16.248-1.646-23.482-4.967c-7.229-3.328-13.727-8.254-19.486-14.717
	c-6.293-6.937-10.953-14.451-13.918-22.548c-2.966-8.075-4.414-17.17-4.414-27.248c0-10.078,1.448-19.165,4.414-27.242
	c2.965-8.089,7.625-15.612,13.918-22.547C59.932,13.35,66.443,8.376,73.686,5.015C80.926,1.667,88.735,0,97.079,0
	c8.342,0,16.158,1.667,23.388,5.015c7.235,3.361,13.761,8.335,19.567,14.853c6.238,6.881,10.857,14.356,13.788,22.411
	c2.938,8.042,4.366,17.184,4.366,27.378c0,10.193-1.43,19.342-4.366,27.377c-2.931,8.062-7.55,15.53-13.781,22.418
	c-5.767,6.463-12.244,11.389-19.485,14.717C113.313,137.49,105.482,139.136,97.079,139.136L97.079,139.136z M97.079,130.151
	c9.441,0,15.455-3.606,18.844-10.604c3.636-7.469,5.691-23.832,5.691-49.89c0-26.045-2.057-42.416-5.691-49.897
	c-3.389-6.983-9.401-10.591-18.844-10.591c-9.497,0-15.563,3.642-18.995,10.693c-3.669,7.537-5.725,23.873-5.725,49.795
	c0,25.929,2.056,42.271,5.725,49.808C81.515,126.509,87.582,130.151,97.079,130.151L97.079,130.151z"/>
<path fill="#FFF200" d="M157.549,131.79C118.844,89.08,80.139,46.37,41.433,3.659c-3.533-3.898-9.007,2.142-5.474,6.04
	c38.706,42.71,77.411,85.419,116.117,128.129C155.609,141.728,161.083,135.687,157.549,131.79z"/>
<path fill="#FFF200" d="M158.046,8.698c-38.705,42.71-77.41,85.42-116.116,128.13c-3.533,3.898-9.007-2.141-5.474-6.039
	c38.706-42.711,77.411-85.42,116.117-128.13C156.106-1.241,161.58,4.8,158.046,8.698z"/>
</svg>
